<?xml version="1.0" ?><!DOCTYPE svg  PUBLIC '-//W3C//DTD SVG 1.1//EN'  'http://www.w3.org/Graphics/SVG/1.1/DTD/svg11.dtd'><svg enable-background="new 0 0 48 48" height="48px" id="Layer_1" version="1.1" viewBox="0 0 48 48" width="48px" xml:space="preserve" xmlns="http://www.w3.org/2000/svg" xmlns:xlink="http://www.w3.org/1999/xlink"><g><path d="M32.606,20.272L32.606,20.272c-2.121,1.201-4.903,2.513-8.2,3.487c-0.682,0.173-1.152,0.083-1.377,0.008   c-3.321-1.388-5.635-2.497-7.683-3.667c-0.014-0.007-0.022-0.01-0.037-0.018c-1.267-0.699-1.28,0-1.28,0v8.098c0,1.105,0.896,2,2,2   H31.37c1.104,0,2-0.895,2-2v-7.908C33.37,19.81,32.606,20.272,32.606,20.272z" fill="#231F20"/><path d="M24,0C10.745,0,0,10.745,0,24c0,13.254,10.745,24,24,24s24-10.746,24-24C48,10.745,37.255,0,24,0z    M37.21,31.424c0,1.104-0.896,2-2,2H12.79c-1.104,0-2-0.896-2-2V16.576c0-1.104,0.896-2,2-2h22.42c1.104,0,2,0.896,2,2V31.424z" fill="#231F20"/></g></svg>