<svg xmlns="http://www.w3.org/2000/svg" width="737.805" height="253.891" viewBox="0 0 737.805 253.891">
  <g id="Group_6967" data-name="Group 6967" transform="translate(-135.757 -657)">
    <g id="Group_6959" data-name="Group 6959" transform="translate(17 520.139)">
      <path id="Forma_1" data-name="Forma 1" d="M669.058,612.331v44.332l80.874,44.332L773.038,687.5l-80.873-46.259V627.751l55.841-30.84,55.255,30.917v10.2l21.69,11.558.077-35.326L748.006,568Z" transform="translate(-289.636 -431.138)" fill="#f3b431"/>
      <path id="Forma_2" data-name="Forma 2" d="M669.058,805.964v34.695l78.948,46.26,48.139-28.912,21.181,11.565,21.181-13.492-20.334-9.953,7.456-4.759-.55-43.755-78.01-44.332-23.02,13.492,79.8,44.974v15.42l-55.841,30.84-55.841-30.84v-9.637Z" transform="translate(-293.266 -563.092)" fill="#20bcbf"/>
    </g>
    <path id="Path_82194" data-name="Path 82194" d="M.429-115.66c-5.365-14.806-14.806-26.823-27.467-34.119-9.442-5.579-21.244-7.94-31.973-7.94-10.085,0-20.815,1.073-30.9,6.223-12.875,6.438-22.746,19.956-22.746,34.763,0,9.656,3.648,20.6,11.8,27.681,7.94,7.3,18.24,11.158,28.754,14.377l28.325,8.369c7.725,2.146,13.948,5.15,18.669,9.656a20.6,20.6,0,0,1,6.438,15.235c0,6.867-2.575,14.163-9.012,18.883-6.867,4.935-18.454,7.51-28.325,7.51-13.09,0-26.179-4.935-33.69-14.163-5.579-6.652-7.94-13.3-9.656-20.6l-19.313,5.365c2.146,9.013,6.438,19.527,13.519,27.467C-92.485-2.575-76.821,3.219-56.65,3.219c14.806,0,29.183-2.36,40.127-10.085,11.158-7.725,18.24-21.029,18.24-33.9A41.8,41.8,0,0,0-11.158-70.383c-7.3-7.081-16.308-11.373-28.11-14.806l-27.467-7.94c-8.369-2.575-16.308-5.794-20.6-10.3a17.324,17.324,0,0,1-5.15-12.66c0-7.3,4.506-14.592,11.587-18.669,5.794-3.219,13.733-4.935,21.673-4.721a45.27,45.27,0,0,1,22.531,6.223c8.8,5.365,13.948,13.09,18.025,22.746ZM103.858-154.5,64.59-86.263,25.106-154.5H2.79L54.933-64.375V0H74.246V-64.375L126.175-154.5Z" transform="translate(254.422 828)" fill="#807d7d"/>
    <path id="Path_82195" data-name="Path 82195" d="M-19.742-154.5H-39.054v92.485c0,12.66-1.073,21.673-8.8,31.544A41.937,41.937,0,0,1-80.469-14.806c-12.66,0-25.321-5.579-32.831-15.665-7.94-10.3-9.013-18.883-9.013-31.544V-154.5h-19.313v98.279c0,13.09,4.935,27.9,13.3,37.981C-117.163-4.077-98.708,3.433-80.469,3.219c18.24.215,36.479-7.081,47.637-21.458,8.583-10.515,13.09-24.463,13.09-37.981ZM75.962,3.219c21.888,0,42.058-8.154,55.148-24.892,12.446-15.879,16.952-35.192,16.952-55.577-.215-19.956-4.292-39.7-16.952-55.792-13.09-16.523-33.475-24.462-55.148-24.677-21.458-.215-42.058,8.154-54.933,24.677C8.583-117.377,3.862-97.206,3.862-77.25c.215,19.956,4.721,39.913,17.167,55.577C33.69-4.935,54.075,3.219,75.962,3.219Zm0-18.24c-15.45,0-30.685-6.008-39.7-18.24C27.037-45.277,24.033-61.585,24.033-77.25s3-31.973,12.231-43.99c9.013-12.231,24.248-18.24,39.7-18.24,15.665,0,30.685,6.008,39.7,18.24,9.227,12.017,12.231,28.325,12.231,43.99-.215,15.665-3,31.973-12.231,43.99C106.648-21.029,91.627-15.021,75.962-15.021Z" transform="translate(725.5 827)" fill="#807d7d"/>
    <path id="Path_82197" data-name="Path 82197" d="M-249.167-6.1a18.5,18.5,0,0,0,.11,2.393,3.353,3.353,0,0,0,.366,1.2,2.048,2.048,0,0,0,.757.732,6.873,6.873,0,0,0,1.624.586V0h-10.3V-1.2a5,5,0,0,0,2.026-.867,2.357,2.357,0,0,0,.671-1.355,16.514,16.514,0,0,0,.159-2.686V-27.222a17.432,17.432,0,0,0-.122-2.454,3.067,3.067,0,0,0-.4-1.2,2.077,2.077,0,0,0-.745-.684,8.254,8.254,0,0,0-1.587-.574v-1.2h10.3v1.2a6.7,6.7,0,0,0-1.55.537,2.252,2.252,0,0,0-.757.671,3.014,3.014,0,0,0-.415,1.208,16.643,16.643,0,0,0-.134,2.49Zm54.619-7.1q.879,1.465,1.477,2.563t1.233,2.466h.317q-.122-1.489-.22-5.92t-.1-8v-5.127a22.1,22.1,0,0,0-.1-2.466,3.026,3.026,0,0,0-.354-1.2,1.938,1.938,0,0,0-.708-.671,7.857,7.857,0,0,0-1.575-.574v-1.2h8.789v1.2a7.85,7.85,0,0,0-1.55.537,2.137,2.137,0,0,0-.732.635,2.976,2.976,0,0,0-.427,1.172,15.634,15.634,0,0,0-.146,2.563V.146h-3.052l-13.6-22.8q-1.27-2.124-1.807-3.1t-1-1.929h-.415q.171,1.88.244,6.8t.073,9.8V-6.1a18.5,18.5,0,0,0,.11,2.393,3.353,3.353,0,0,0,.366,1.2,2.048,2.048,0,0,0,.757.732,6.873,6.873,0,0,0,1.624.586V0h-8.911V-1.2a5,5,0,0,0,2.026-.867,2.357,2.357,0,0,0,.671-1.355,16.514,16.514,0,0,0,.159-2.686V-27.222a17.432,17.432,0,0,0-.122-2.454,3.067,3.067,0,0,0-.4-1.2,2.077,2.077,0,0,0-.745-.684,8.254,8.254,0,0,0-1.587-.574v-1.2h7.642Zm60.283,0q.879,1.465,1.477,2.563t1.233,2.466h.317q-.122-1.489-.22-5.92t-.1-8v-5.127a22.1,22.1,0,0,0-.1-2.466,3.026,3.026,0,0,0-.354-1.2,1.938,1.938,0,0,0-.708-.671,7.857,7.857,0,0,0-1.575-.574v-1.2h8.789v1.2a7.85,7.85,0,0,0-1.55.537,2.137,2.137,0,0,0-.732.635,2.977,2.977,0,0,0-.427,1.172,15.634,15.634,0,0,0-.146,2.563V.146h-3.052l-13.6-22.8q-1.27-2.124-1.807-3.1t-1-1.929h-.415q.171,1.88.244,6.8t.073,9.8V-6.1a18.5,18.5,0,0,0,.11,2.393,3.353,3.353,0,0,0,.366,1.2,2.048,2.048,0,0,0,.757.732,6.873,6.873,0,0,0,1.624.586V0h-8.911V-1.2a5,5,0,0,0,2.026-.867,2.357,2.357,0,0,0,.671-1.355,16.514,16.514,0,0,0,.159-2.686V-27.222a17.432,17.432,0,0,0-.122-2.454,3.067,3.067,0,0,0-.4-1.2,2.077,2.077,0,0,0-.745-.684,8.254,8.254,0,0,0-1.587-.574v-1.2h7.642ZM-80.574.391a14.213,14.213,0,0,1-5.334-.964,10.4,10.4,0,0,1-4.126-3A14.238,14.238,0,0,1-92.7-8.789a26.947,26.947,0,0,1-.94-7.593,23.832,23.832,0,0,1,1.66-9.351,12.955,12.955,0,0,1,4.749-5.945,12.707,12.707,0,0,1,7.166-2.039A13.2,13.2,0,0,1-72.749-31.8a11.672,11.672,0,0,1,4.468,5.64,24.285,24.285,0,0,1,1.5,9.07,24.174,24.174,0,0,1-1.709,9.644,12.641,12.641,0,0,1-4.822,5.884A13.377,13.377,0,0,1-80.574.391Zm-8.032-17.456q0,7.5,2.185,11.4a6.935,6.935,0,0,0,6.384,3.906,6.451,6.451,0,0,0,4.517-1.7,10.4,10.4,0,0,0,2.783-4.968,28.145,28.145,0,0,0,.928-7.642A30.3,30.3,0,0,0-72.9-24.89a10.607,10.607,0,0,0-2.966-5.09,6.57,6.57,0,0,0-4.37-1.587A6.76,6.76,0,0,0-84-30.542a7.95,7.95,0,0,0-2.612,2.917,14.9,14.9,0,0,0-1.514,4.578A34.409,34.409,0,0,0-88.606-17.065Zm61.748-16.26v1.2a6.449,6.449,0,0,0-1.709.488,1.977,1.977,0,0,0-.879.83,3.015,3.015,0,0,0-.293,1.44,9.075,9.075,0,0,0,.2,1.794q.2.964.562,2.161l5.713,19.922,7.007-20.068q.146-.464.293-.977t.256-1a7.252,7.252,0,0,0,.146-.854q.037-.366.037-.684a2.923,2.923,0,0,0-.671-2.136,4.064,4.064,0,0,0-2.283-.916v-1.2H-8.23v1.2a4.343,4.343,0,0,0-1.611.708,5.046,5.046,0,0,0-1.208,1.489A23.859,23.859,0,0,0-12.5-26.66L-22.634.391h-3.2L-34.06-26.831a19.763,19.763,0,0,0-1.147-3.162,4.422,4.422,0,0,0-1.074-1.416,4,4,0,0,0-1.611-.72v-1.2ZM33.23,0V-1.2a7.9,7.9,0,0,0,1.819-.537,1.985,1.985,0,0,0,.891-.818,2.881,2.881,0,0,0,.293-1.4,9.075,9.075,0,0,0-.2-1.794q-.2-.964-.562-2.161l-.9-3.149H23.2l-.83,2.393a24.027,24.027,0,0,0-.83,2.734,8.244,8.244,0,0,0-.2,1.685A2.785,2.785,0,0,0,22.085-2.1a4.2,4.2,0,0,0,2.283.9V0H13.943V-1.2a3.687,3.687,0,0,0,2.38-1.587,16.3,16.3,0,0,0,1.965-3.906L28.469-33.716h3.857l8.3,27.222a26.287,26.287,0,0,0,1.038,2.905,4.544,4.544,0,0,0,1.086,1.563,4.011,4.011,0,0,0,1.733.83V0ZM23.855-13.184H34.06L29.421-28.931ZM69.88-33.325H96.3v8.5H93.9a23.41,23.41,0,0,0-1.062-3.32A6.585,6.585,0,0,0,91.731-30a3.487,3.487,0,0,0-1.257-.9,5.723,5.723,0,0,0-2.014-.269h-3.1v25a13.132,13.132,0,0,0,.159,2.295,3.7,3.7,0,0,0,.488,1.355,2.247,2.247,0,0,0,.891.781,8.239,8.239,0,0,0,1.758.549V0H77.5V-1.2a12.876,12.876,0,0,0,1.294-.366,3.11,3.11,0,0,0,.916-.476,2.235,2.235,0,0,0,.586-.72,4.174,4.174,0,0,0,.366-1.2,13.692,13.692,0,0,0,.134-2.222v-25H77.717a6.82,6.82,0,0,0-1.892.22,3.046,3.046,0,0,0-1.379.916,6.7,6.7,0,0,0-1.16,1.978,22.309,22.309,0,0,0-.989,3.235H69.88ZM134.558-6.1a18.5,18.5,0,0,0,.11,2.393,3.353,3.353,0,0,0,.366,1.2,2.048,2.048,0,0,0,.757.732,6.873,6.873,0,0,0,1.624.586V0h-10.3V-1.2a5,5,0,0,0,2.026-.867,2.357,2.357,0,0,0,.671-1.355,16.514,16.514,0,0,0,.159-2.686V-27.222a17.432,17.432,0,0,0-.122-2.454,3.067,3.067,0,0,0-.4-1.2,2.077,2.077,0,0,0-.745-.684,8.254,8.254,0,0,0-1.587-.574v-1.2h10.3v1.2a6.7,6.7,0,0,0-1.55.537,2.252,2.252,0,0,0-.757.671,3.014,3.014,0,0,0-.415,1.208,16.643,16.643,0,0,0-.134,2.49ZM182.585.391a14.213,14.213,0,0,1-5.334-.964,10.4,10.4,0,0,1-4.126-3,14.238,14.238,0,0,1-2.661-5.212,26.947,26.947,0,0,1-.94-7.593,23.832,23.832,0,0,1,1.66-9.351,12.955,12.955,0,0,1,4.749-5.945,12.707,12.707,0,0,1,7.166-2.039A13.2,13.2,0,0,1,190.41-31.8a11.672,11.672,0,0,1,4.468,5.64,24.285,24.285,0,0,1,1.5,9.07,24.174,24.174,0,0,1-1.709,9.644,12.641,12.641,0,0,1-4.822,5.884A13.377,13.377,0,0,1,182.585.391Zm-8.032-17.456q0,7.5,2.185,11.4a6.935,6.935,0,0,0,6.384,3.906,6.451,6.451,0,0,0,4.517-1.7,10.4,10.4,0,0,0,2.783-4.968,28.145,28.145,0,0,0,.928-7.642,30.3,30.3,0,0,0-1.086-8.826,10.607,10.607,0,0,0-2.966-5.09,6.57,6.57,0,0,0-4.37-1.587,6.76,6.76,0,0,0-3.772,1.025,7.95,7.95,0,0,0-2.612,2.917,14.9,14.9,0,0,0-1.514,4.578A34.409,34.409,0,0,0,174.553-17.065Zm73.54,3.857q.879,1.465,1.477,2.563T250.8-8.179h.317Q251-9.668,250.9-14.1t-.1-8v-5.127a22.1,22.1,0,0,0-.1-2.466,3.026,3.026,0,0,0-.354-1.2,1.938,1.938,0,0,0-.708-.671,7.857,7.857,0,0,0-1.575-.574v-1.2h8.789v1.2a7.85,7.85,0,0,0-1.55.537,2.137,2.137,0,0,0-.732.635,2.976,2.976,0,0,0-.427,1.172A15.634,15.634,0,0,0,254-27.222V.146H250.95l-13.6-22.8q-1.27-2.124-1.807-3.1t-1-1.929h-.415q.171,1.88.244,6.8t.073,9.8V-6.1a18.5,18.5,0,0,0,.11,2.393,3.353,3.353,0,0,0,.366,1.2,2.048,2.048,0,0,0,.757.732A6.873,6.873,0,0,0,237.3-1.2V0h-8.911V-1.2a5,5,0,0,0,2.026-.867,2.357,2.357,0,0,0,.671-1.355,16.514,16.514,0,0,0,.159-2.686V-27.222a17.432,17.432,0,0,0-.122-2.454,3.067,3.067,0,0,0-.4-1.2,2.077,2.077,0,0,0-.745-.684,8.254,8.254,0,0,0-1.587-.574v-1.2h7.642Z" transform="translate(503 910.5)" fill="#2bbab0"/>
    <path id="Path_82196" data-name="Path 82196" d="M-249.167-6.1a18.5,18.5,0,0,0,.11,2.393,3.353,3.353,0,0,0,.366,1.2,2.048,2.048,0,0,0,.757.732,6.873,6.873,0,0,0,1.624.586V0h-10.3V-1.2a5,5,0,0,0,2.026-.867,2.357,2.357,0,0,0,.671-1.355,16.514,16.514,0,0,0,.159-2.686V-27.222a17.432,17.432,0,0,0-.122-2.454,3.067,3.067,0,0,0-.4-1.2,2.077,2.077,0,0,0-.745-.684,8.254,8.254,0,0,0-1.587-.574v-1.2h10.3v1.2a6.7,6.7,0,0,0-1.55.537,2.252,2.252,0,0,0-.757.671,3.014,3.014,0,0,0-.415,1.208,16.643,16.643,0,0,0-.134,2.49Zm54.619-7.1q.879,1.465,1.477,2.563t1.233,2.466h.317q-.122-1.489-.22-5.92t-.1-8v-5.127a22.1,22.1,0,0,0-.1-2.466,3.026,3.026,0,0,0-.354-1.2,1.938,1.938,0,0,0-.708-.671,7.857,7.857,0,0,0-1.575-.574v-1.2h8.789v1.2a7.85,7.85,0,0,0-1.55.537,2.137,2.137,0,0,0-.732.635,2.976,2.976,0,0,0-.427,1.172,15.634,15.634,0,0,0-.146,2.563V.146h-3.052l-13.6-22.8q-1.27-2.124-1.807-3.1t-1-1.929h-.415q.171,1.88.244,6.8t.073,9.8V-6.1a18.5,18.5,0,0,0,.11,2.393,3.353,3.353,0,0,0,.366,1.2,2.048,2.048,0,0,0,.757.732,6.873,6.873,0,0,0,1.624.586V0h-8.911V-1.2a5,5,0,0,0,2.026-.867,2.357,2.357,0,0,0,.671-1.355,16.514,16.514,0,0,0,.159-2.686V-27.222a17.432,17.432,0,0,0-.122-2.454,3.067,3.067,0,0,0-.4-1.2,2.077,2.077,0,0,0-.745-.684,8.254,8.254,0,0,0-1.587-.574v-1.2h7.642Zm60.283,0q.879,1.465,1.477,2.563t1.233,2.466h.317q-.122-1.489-.22-5.92t-.1-8v-5.127a22.1,22.1,0,0,0-.1-2.466,3.026,3.026,0,0,0-.354-1.2,1.938,1.938,0,0,0-.708-.671,7.857,7.857,0,0,0-1.575-.574v-1.2h8.789v1.2a7.85,7.85,0,0,0-1.55.537,2.137,2.137,0,0,0-.732.635,2.977,2.977,0,0,0-.427,1.172,15.634,15.634,0,0,0-.146,2.563V.146h-3.052l-13.6-22.8q-1.27-2.124-1.807-3.1t-1-1.929h-.415q.171,1.88.244,6.8t.073,9.8V-6.1a18.5,18.5,0,0,0,.11,2.393,3.353,3.353,0,0,0,.366,1.2,2.048,2.048,0,0,0,.757.732,6.873,6.873,0,0,0,1.624.586V0h-8.911V-1.2a5,5,0,0,0,2.026-.867,2.357,2.357,0,0,0,.671-1.355,16.514,16.514,0,0,0,.159-2.686V-27.222a17.432,17.432,0,0,0-.122-2.454,3.067,3.067,0,0,0-.4-1.2,2.077,2.077,0,0,0-.745-.684,8.254,8.254,0,0,0-1.587-.574v-1.2h7.642ZM-80.574.391a14.213,14.213,0,0,1-5.334-.964,10.4,10.4,0,0,1-4.126-3A14.238,14.238,0,0,1-92.7-8.789a26.947,26.947,0,0,1-.94-7.593,23.832,23.832,0,0,1,1.66-9.351,12.955,12.955,0,0,1,4.749-5.945,12.707,12.707,0,0,1,7.166-2.039A13.2,13.2,0,0,1-72.749-31.8a11.672,11.672,0,0,1,4.468,5.64,24.285,24.285,0,0,1,1.5,9.07,24.174,24.174,0,0,1-1.709,9.644,12.641,12.641,0,0,1-4.822,5.884A13.377,13.377,0,0,1-80.574.391Zm-8.032-17.456q0,7.5,2.185,11.4a6.935,6.935,0,0,0,6.384,3.906,6.451,6.451,0,0,0,4.517-1.7,10.4,10.4,0,0,0,2.783-4.968,28.145,28.145,0,0,0,.928-7.642A30.3,30.3,0,0,0-72.9-24.89a10.607,10.607,0,0,0-2.966-5.09,6.57,6.57,0,0,0-4.37-1.587A6.76,6.76,0,0,0-84-30.542a7.95,7.95,0,0,0-2.612,2.917,14.9,14.9,0,0,0-1.514,4.578A34.409,34.409,0,0,0-88.606-17.065Zm61.748-16.26v1.2a6.449,6.449,0,0,0-1.709.488,1.977,1.977,0,0,0-.879.83,3.015,3.015,0,0,0-.293,1.44,9.075,9.075,0,0,0,.2,1.794q.2.964.562,2.161l5.713,19.922,7.007-20.068q.146-.464.293-.977t.256-1a7.252,7.252,0,0,0,.146-.854q.037-.366.037-.684a2.923,2.923,0,0,0-.671-2.136,4.064,4.064,0,0,0-2.283-.916v-1.2H-8.23v1.2a4.343,4.343,0,0,0-1.611.708,5.046,5.046,0,0,0-1.208,1.489A23.859,23.859,0,0,0-12.5-26.66L-22.634.391h-3.2L-34.06-26.831a19.763,19.763,0,0,0-1.147-3.162,4.422,4.422,0,0,0-1.074-1.416,4,4,0,0,0-1.611-.72v-1.2ZM33.23,0V-1.2a7.9,7.9,0,0,0,1.819-.537,1.985,1.985,0,0,0,.891-.818,2.881,2.881,0,0,0,.293-1.4,9.075,9.075,0,0,0-.2-1.794q-.2-.964-.562-2.161l-.9-3.149H23.2l-.83,2.393a24.027,24.027,0,0,0-.83,2.734,8.244,8.244,0,0,0-.2,1.685A2.785,2.785,0,0,0,22.085-2.1a4.2,4.2,0,0,0,2.283.9V0H13.943V-1.2a3.687,3.687,0,0,0,2.38-1.587,16.3,16.3,0,0,0,1.965-3.906L28.469-33.716h3.857l8.3,27.222a26.287,26.287,0,0,0,1.038,2.905,4.544,4.544,0,0,0,1.086,1.563,4.011,4.011,0,0,0,1.733.83V0ZM23.855-13.184H34.06L29.421-28.931ZM69.88-33.325H96.3v8.5H93.9a23.41,23.41,0,0,0-1.062-3.32A6.585,6.585,0,0,0,91.731-30a3.487,3.487,0,0,0-1.257-.9,5.723,5.723,0,0,0-2.014-.269h-3.1v25a13.132,13.132,0,0,0,.159,2.295,3.7,3.7,0,0,0,.488,1.355,2.247,2.247,0,0,0,.891.781,8.239,8.239,0,0,0,1.758.549V0H77.5V-1.2a12.876,12.876,0,0,0,1.294-.366,3.11,3.11,0,0,0,.916-.476,2.235,2.235,0,0,0,.586-.72,4.174,4.174,0,0,0,.366-1.2,13.692,13.692,0,0,0,.134-2.222v-25H77.717a6.82,6.82,0,0,0-1.892.22,3.046,3.046,0,0,0-1.379.916,6.7,6.7,0,0,0-1.16,1.978,22.309,22.309,0,0,0-.989,3.235H69.88ZM134.558-6.1a18.5,18.5,0,0,0,.11,2.393,3.353,3.353,0,0,0,.366,1.2,2.048,2.048,0,0,0,.757.732,6.873,6.873,0,0,0,1.624.586V0h-10.3V-1.2a5,5,0,0,0,2.026-.867,2.357,2.357,0,0,0,.671-1.355,16.514,16.514,0,0,0,.159-2.686V-27.222a17.432,17.432,0,0,0-.122-2.454,3.067,3.067,0,0,0-.4-1.2,2.077,2.077,0,0,0-.745-.684,8.254,8.254,0,0,0-1.587-.574v-1.2h10.3v1.2a6.7,6.7,0,0,0-1.55.537,2.252,2.252,0,0,0-.757.671,3.014,3.014,0,0,0-.415,1.208,16.643,16.643,0,0,0-.134,2.49ZM182.585.391a14.213,14.213,0,0,1-5.334-.964,10.4,10.4,0,0,1-4.126-3,14.238,14.238,0,0,1-2.661-5.212,26.947,26.947,0,0,1-.94-7.593,23.832,23.832,0,0,1,1.66-9.351,12.955,12.955,0,0,1,4.749-5.945,12.707,12.707,0,0,1,7.166-2.039A13.2,13.2,0,0,1,190.41-31.8a11.672,11.672,0,0,1,4.468,5.64,24.285,24.285,0,0,1,1.5,9.07,24.174,24.174,0,0,1-1.709,9.644,12.641,12.641,0,0,1-4.822,5.884A13.377,13.377,0,0,1,182.585.391Zm-8.032-17.456q0,7.5,2.185,11.4a6.935,6.935,0,0,0,6.384,3.906,6.451,6.451,0,0,0,4.517-1.7,10.4,10.4,0,0,0,2.783-4.968,28.145,28.145,0,0,0,.928-7.642,30.3,30.3,0,0,0-1.086-8.826,10.607,10.607,0,0,0-2.966-5.09,6.57,6.57,0,0,0-4.37-1.587,6.76,6.76,0,0,0-3.772,1.025,7.95,7.95,0,0,0-2.612,2.917,14.9,14.9,0,0,0-1.514,4.578A34.409,34.409,0,0,0,174.553-17.065Zm73.54,3.857q.879,1.465,1.477,2.563T250.8-8.179h.317Q251-9.668,250.9-14.1t-.1-8v-5.127a22.1,22.1,0,0,0-.1-2.466,3.026,3.026,0,0,0-.354-1.2,1.938,1.938,0,0,0-.708-.671,7.857,7.857,0,0,0-1.575-.574v-1.2h8.789v1.2a7.85,7.85,0,0,0-1.55.537,2.137,2.137,0,0,0-.732.635,2.976,2.976,0,0,0-.427,1.172A15.634,15.634,0,0,0,254-27.222V.146H250.95l-13.6-22.8q-1.27-2.124-1.807-3.1t-1-1.929h-.415q.171,1.88.244,6.8t.073,9.8V-6.1a18.5,18.5,0,0,0,.11,2.393,3.353,3.353,0,0,0,.366,1.2,2.048,2.048,0,0,0,.757.732A6.873,6.873,0,0,0,237.3-1.2V0h-8.911V-1.2a5,5,0,0,0,2.026-.867,2.357,2.357,0,0,0,.671-1.355,16.514,16.514,0,0,0,.159-2.686V-27.222a17.432,17.432,0,0,0-.122-2.454,3.067,3.067,0,0,0-.4-1.2,2.077,2.077,0,0,0-.745-.684,8.254,8.254,0,0,0-1.587-.574v-1.2h7.642Z" transform="translate(503 910.5)" fill="#2bbab0"/>
  </g>
</svg>
